<?xml version="1.0" encoding="utf-8"?>
<svg viewBox="0 0 500 140.434" xmlns="http://www.w3.org/2000/svg" xmlns:bx="https://boxy-svg.com">
  <text style="fill: rgb(74, 74, 74); font-family: Arial, sans-serif; font-size: 26.5px; stroke-width: 0px; white-space: pre;" x="37.335" y="84.09" transform="matrix(4.714026, 0, 0, 4.604506, -165.635376, -263.592194)">WeC  ok</text>
  <ellipse style="fill: none; fill-opacity: 0; fill-rule: nonzero; stroke: rgb(74, 74, 74); stroke-width: 9px;" cx="320.895" cy="93.266" rx="25.23" ry="27.112"/>
  <path style="fill: rgb(216, 216, 216); paint-order: stroke; stroke: rgb(74, 74, 74); fill-opacity: 0; stroke-width: 5px;" d="M 336.923 68.233 C 352.543 54.87 352.438 47.26 366.74 36.886"/>
  <path style="stroke: rgb(0, 0, 0); fill: rgb(255, 255, 255); stroke-width: 2px;" d="M 146.889 60.407 L 140.931 35.441"/>
  <path style="stroke: rgb(0, 0, 0); fill: rgb(255, 255, 255); stroke-width: 2px;" d="M 172.958 60.081 L 178.073 34.984"/>
  <path style="stroke: rgb(0, 0, 0); fill: none; fill-opacity: 0; stroke-width: 2px;" d="M 141.211 35.94 L 138.85083333333333 32.979166666666664 C 136.49066666666667 30.01833333333333 131.77033333333335 24.096666666666664 132.07450000000003 18.925833333333333 C 132.37866666666665 13.755 137.70733333333334 9.335 141.71966666666665 9.383333333333333 C 145.732 9.431666666666667 148.428 13.948333333333332 151.22849999999997 13.630333333333335 C 154.029 13.312333333333333 156.934 8.159666666666666 159.87233333333333 8.068 C 162.81066666666666 7.976333333333333 165.78233333333333 12.945666666666666 168.50783333333334 13.015500000000001 C 171.23333333333335 13.085333333333333 173.71266666666668 8.255666666666666 177.37633333333335 7.942333333333333 C 181.04 7.6290000000000004 185.888 11.832 186.1783333333333 17.155666666666665 C 186.46866666666665 22.479333333333333 182.20133333333334 28.923666666666666 180.06766666666667 32.145833333333336 L 177.934 35.368" bx:d="M 141.211 35.94 U 127.05 18.175 U 143.036 4.915 U 151.124 18.465 U 159.839 3.007 U 168.754 17.915 U 176.192 3.426 U 190.736 16.035 U 177.934 35.368 1@58b0a10e"/>
  <path style="fill: rgb(216, 216, 216); stroke: rgb(0, 0, 0); fill-opacity: 0; stroke-width: 2px;" d="M 147.454 52.743 L 149.649 52.119 C 151.844 51.494 156.234 50.246 160.411 50.186 C 164.588 50.126 168.553 51.256 170.535 51.82 L 172.517 52.385" bx:d="M 147.454 52.743 U 160.624 48.997 U 172.517 52.385 1@74364067"/>
  <path style="fill: rgb(216, 216, 216); stroke: rgb(0, 0, 0); fill-opacity: 0; stroke-width: 2px;" d="M 151.781 19.12 L 152.148 20.485 C 152.514 21.849 153.248 24.577 153.814 28.353 C 154.38 32.129 154.778 36.951 154.978 39.363 L 155.177 41.774" bx:d="M 151.781 19.12 U 153.981 27.306 U 155.177 41.774 1@1119283d"/>
  <path style="fill: rgb(216, 216, 216); stroke: rgb(0, 0, 0); fill-opacity: 0; stroke-width: 2px;" d="M 168.551 19.214 L 168.198 20.788 C 167.846 22.362 167.141 25.51 166.6 29.269 C 166.06 33.029 165.683 37.399 165.495 39.585 L 165.307 41.77" bx:d="M 168.551 19.214 U 166.436 28.658 U 165.307 41.77 1@113367dd"/>
</svg>